                     Regresa A Mí (Unbreak My Heart)- Il Divo



About The Artist

Il Divo ("divine male performer" in Italian) is a multinational operatic pop vocal group created by music manager, executive, and reality TV star Simon Cowell. Formed in the United Kingdom, they are also signed to Cowell's record label, Syco Music. Il Divo is a group of four male singers: Spanish baritone Carlos Marín, Swiss tenor Urs Bühler, American tenor David Miller, and French pop singer Sébastien Izambard.

Il Divo was formed in 2004 after promoter Simon Cowell, best known as a judge on the television talent show American Idol, heard operatic singers Andrea Bocelli and Sarah Brightman singing the duet "Con te partiro," and noted their popularity with the audience. Cowell saw that audiences were eager to hear this style of popular operatic singing, and he decided to create a multinational quartet of male singers who combined a powerful operatic singing style with handsome good looks, a combination he felt was sure to succeed.


Description

Regresa A Mi is the song from the self-titled debut album of Il Divo. This song is the spanish version of "Unbreak My Heart" of R&b singer Tony Braxton. The album hit the #1 slot on both Amazon.com and BarnesandNoble.com after a career-defining appearance on The Oprah Winfrey Show on 5 April 2005, where they performed "Regresa a Mi".


Plot

This Video features the group members seperating from their families and love to go for a life changing live performance and gaining a great fame.


Lyrics

No me abandones así
hablando sólo de ti.
Ven y devuelveme al fin
la sonrisa que se fue.
Una vez más tocar tu piel
el hondo suspirar.
Recuperemos lo que se ha perdido.

Regresa a mí,
quéreme otra vez,
borra el dolor
que al irte me dio
cuando te separaste de mí.
Dime que sí
Ya no quiero llorar,
regresa a mí.

Extraño el amor que se fue,
extraña la dicha también.
Quiero que vengas a mí
y me vuelvas s querer.
No puedo más si tú no estás,
tienes que llegar.
Mi vida se apaga sin ti a mi lado.

Regresa a mí,
quéreme otra vez,
borra el dolor
que al irte me dio
cuando te separaste de mí.
Dime que sí
Ya no quiero llorar,
regresa a mí.

No me abandonas así,
hablando sólo de ti.
Devuelveme la pasión de tus brazos.

Regresa a mí,
quéreme otra vez,
borra el dolor
que al irte me dio
cuando te separaste de mí.
Dime que sí
Ya no quiero llorar,
regresa a mí.


Details

General
Format                           : Matroska
File size                        : 69.2 MiB
Duration                         : 4mn 50s
Overall bit rate                 : 1,998 Kbps

Video
Format                           : AVC
Duration                         : 4mn 50s
Bit rate                         : 1,800 Kbps
Width                            : 720 pixels
Height                           : 400 pixels
Display aspect ratio             : 16:9
Frame rate                       : 25.000 fps
Scan type                        : Progressive
Stream size                      : 61.2 MiB (88%)

Audio
Format                           : AC-3
Duration                         : 4mn 50s
Bit rate mode                    : Constant
Bit rate                         : 192 Kbps
Channel(s)                       : 2 channels
Channel positions                : Front: L R
Sampling rate                    : 48.0 KHz
Stream size                      : 6.65 MiB (10%)